<svg xmlns="http://www.w3.org/2000/svg" xmlns:xlink="http://www.w3.org/1999/xlink" id="Layer_1" width="60" height="60" x="0" y="0" enable-background="new 0 0 60 60" version="1.1" viewBox="0 0 60 60" xml:space="preserve"><g><path fill="none" fill-rule="evenodd" stroke="#333" stroke-linecap="round" stroke-linejoin="round" stroke-miterlimit="10" stroke-width="2" d="M30.009,14.009c9.124-17.857,29.869-9.344,28.962,6.62c-0.943,16.616-24.295,22.351-28.962,34.932 c-4.665-12.896-27.705-18-28.963-34.932C-0.138,4.684,21.88-3.919,30.009,14.009z" clip-rule="evenodd"/><path fill="none" fill-rule="evenodd" stroke="#333" stroke-linecap="round" stroke-linejoin="round" stroke-miterlimit="10" stroke-width="2" d="M34.273,14.558c-0.243,0.406-0.478,0.83-0.703,1.271" clip-rule="evenodd"/><path fill="none" fill-rule="evenodd" stroke="#333" stroke-linecap="round" stroke-linejoin="round" stroke-miterlimit="10" stroke-width="2" d="M44.186,8.025c-2.993,0-5.738,1.359-7.998,3.901" clip-rule="evenodd"/><path fill="none" fill-rule="evenodd" stroke="#333" stroke-linecap="round" stroke-linejoin="round" stroke-miterlimit="10" stroke-width="2" d="M33.569,44.276c2.23-2.019,4.699-3.892,7.134-5.739c1.181-0.896,2.352-1.785,3.482-2.678" clip-rule="evenodd"/><path fill="none" fill-rule="evenodd" stroke="#333" stroke-linecap="round" stroke-linejoin="round" stroke-miterlimit="10" stroke-width="2" d="M5.102,17.87c-0.105,0.803-0.129,1.626-0.067,2.462" clip-rule="evenodd"/><path fill="none" fill-rule="evenodd" stroke="#333" stroke-linecap="round" stroke-linejoin="round" stroke-miterlimit="10" stroke-width="2" d="M16.2,8c-2.991,0-6.054,1.375-8.19,3.676c-0.382,0.412-0.729,0.846-1.042,1.301c-0.262,0.382-0.498,0.778-0.709,1.186" clip-rule="evenodd"/></g></svg>