<svg xmlns="http://www.w3.org/2000/svg" xmlns:xlink="http://www.w3.org/1999/xlink" id="Layer_1" width="60" height="60" x="0" y="0" enable-background="new 0 0 60 60" version="1.1" viewBox="0 0 60 60" xml:space="preserve"><g><path fill="none" stroke="#FFF" stroke-linejoin="round" stroke-miterlimit="10" stroke-width="2" d="M22,13H9 c-1.104,0-2,0.896-2,2v42c0,1.104,0.896,2,2,2h20c1.105,0,2-0.896,2-2V30"/><path fill="none" stroke="#FFF" stroke-linecap="round" stroke-linejoin="round" stroke-miterlimit="10" stroke-width="2" d="M25,5v12c0,2.209,1.791,4,4,4h2v6l6-6h12c2.209,0,4-1.791,4-4V5c0-2.209-1.791-4-4-4H29C26.791,1,25,2.791,25,5z"/><line x1="31" x2="7" y1="47" y2="47" fill="none" stroke="#FFF" stroke-linecap="round" stroke-linejoin="round" stroke-miterlimit="10" stroke-width="2"/><line x1="7" x2="22" y1="21" y2="21" fill="none" stroke="#FFF" stroke-linejoin="round" stroke-miterlimit="10" stroke-width="2"/><line x1="17" x2="21" y1="17" y2="17" fill="none" stroke="#FFF" stroke-linecap="round" stroke-linejoin="round" stroke-miterlimit="10" stroke-width="2"/><line x1="45" x2="45" y1="11" y2="11" fill="none" stroke="#FFF" stroke-linecap="round" stroke-linejoin="round" stroke-miterlimit="10" stroke-width="2"/><line x1="39" x2="39" y1="11" y2="11" fill="none" stroke="#FFF" stroke-linecap="round" stroke-linejoin="round" stroke-miterlimit="10" stroke-width="2"/><line x1="33" x2="33" y1="11" y2="11" fill="none" stroke="#FFF" stroke-linecap="round" stroke-linejoin="round" stroke-miterlimit="10" stroke-width="2"/><circle cx="19" cy="53" r="2" fill="none" stroke="#FFF" stroke-linecap="round" stroke-linejoin="round" stroke-miterlimit="10" stroke-width="2"/></g></svg>