<svg xmlns="http://www.w3.org/2000/svg" xmlns:xlink="http://www.w3.org/1999/xlink" id="Layer_1" width="60" height="60" x="0" y="0" enable-background="new 0 0 60 60" version="1.1" viewBox="0 0 60 60" xml:space="preserve"><g><circle cx="30.271" cy="36" r="23" fill="none" stroke="#333" stroke-linecap="round" stroke-linejoin="round" stroke-miterlimit="10" stroke-width="2"/><circle cx="30.271" cy="36" r="19" fill="none" stroke="#333" stroke-linecap="round" stroke-linejoin="round" stroke-miterlimit="10" stroke-width="2"/><circle cx="30.271" cy="7" r="6" fill="none" stroke="#333" stroke-linecap="round" stroke-linejoin="round" stroke-miterlimit="10" stroke-width="2"/><circle cx="30.271" cy="37" r="2" fill="none" stroke="#333" stroke-linecap="round" stroke-linejoin="round" stroke-miterlimit="10" stroke-width="2"/><line x1="30.271" x2="30.271" y1="25" y2="41" fill="none" stroke="#333" stroke-linecap="round" stroke-linejoin="round" stroke-miterlimit="10" stroke-width="2"/><line x1="30.271" x2="30.271" y1="21" y2="21" fill="none" stroke="#333" stroke-linecap="round" stroke-linejoin="round" stroke-miterlimit="10" stroke-width="2"/><line x1="30.271" x2="30.271" y1="51" y2="51" fill="none" stroke="#333" stroke-linecap="round" stroke-linejoin="round" stroke-miterlimit="10" stroke-width="2"/><line x1="45.271" x2="45.271" y1="36" y2="36" fill="none" stroke="#333" stroke-linecap="round" stroke-linejoin="round" stroke-miterlimit="10" stroke-width="2"/><line x1="15.271" x2="15.271" y1="36" y2="36" fill="none" stroke="#333" stroke-linecap="round" stroke-linejoin="round" stroke-miterlimit="10" stroke-width="2"/><line x1="22.771" x2="22.771" y1="23.01" y2="23.01" fill="none" stroke="#333" stroke-linecap="round" stroke-linejoin="round" stroke-miterlimit="10" stroke-width="2"/><line x1="37.771" x2="37.771" y1="48.99" y2="48.99" fill="none" stroke="#333" stroke-linecap="round" stroke-linejoin="round" stroke-miterlimit="10" stroke-width="2"/><line x1="43.262" x2="43.262" y1="28.5" y2="28.5" fill="none" stroke="#333" stroke-linecap="round" stroke-linejoin="round" stroke-miterlimit="10" stroke-width="2"/><line x1="17.281" x2="17.281" y1="43.5" y2="43.5" fill="none" stroke="#333" stroke-linecap="round" stroke-linejoin="round" stroke-miterlimit="10" stroke-width="2"/><line x1="17.281" x2="17.281" y1="28.5" y2="28.5" fill="none" stroke="#333" stroke-linecap="round" stroke-linejoin="round" stroke-miterlimit="10" stroke-width="2"/><line x1="43.262" x2="43.262" y1="43.5" y2="43.5" fill="none" stroke="#333" stroke-linecap="round" stroke-linejoin="round" stroke-miterlimit="10" stroke-width="2"/><line x1="37.771" x2="37.771" y1="23.01" y2="23.01" fill="none" stroke="#333" stroke-linecap="round" stroke-linejoin="round" stroke-miterlimit="10" stroke-width="2"/><line x1="22.771" x2="22.771" y1="48.99" y2="48.99" fill="none" stroke="#333" stroke-linecap="round" stroke-linejoin="round" stroke-miterlimit="10" stroke-width="2"/><polyline fill="none" stroke="#333" stroke-linecap="round" stroke-linejoin="round" stroke-miterlimit="10" stroke-width="2" points="29.271 13 29.271 8 31.271 8 31.271 13"/><rect width="1.414" height="5.657" x="50.064" y="13.672" fill="none" stroke="#333" stroke-linecap="round" stroke-linejoin="round" stroke-miterlimit="10" stroke-width="2" transform="matrix(0.7071 -0.7071 0.7071 0.7071 3.2034 40.7336)"/><line x1="50.271" x2="47" y1="17" y2="20.271" fill="none" stroke="#333" stroke-linecap="round" stroke-linejoin="round" stroke-miterlimit="10" stroke-width="2"/><rect width="1.414" height="5.657" x="8.793" y="13.672" fill="none" stroke="#333" stroke-linecap="round" stroke-linejoin="round" stroke-miterlimit="10" stroke-width="2" transform="matrix(-0.7071 -0.7071 0.7071 -0.7071 4.5503 34.8848)"/><line x1="10" x2="13.271" y1="17" y2="20.271" fill="none" stroke="#333" stroke-linecap="round" stroke-linejoin="round" stroke-miterlimit="10" stroke-width="2"/></g></svg>