<svg xmlns="http://www.w3.org/2000/svg" xmlns:xlink="http://www.w3.org/1999/xlink" id="Layer_1" width="60" height="60" x="0" y="0" enable-background="new 0 0 60 60" version="1.1" viewBox="0 0 60 60" xml:space="preserve"><g><path fill="none" stroke="#333" stroke-linecap="round" stroke-linejoin="round" stroke-miterlimit="10" stroke-width="2" d="M34.666,47h-9.333C22.94,47,21,45.061,21,42.666V39h18v3.666C39,45.061,37.061,47,34.666,47z"/><path fill="none" stroke="#333" stroke-linecap="round" stroke-linejoin="round" stroke-miterlimit="10" stroke-width="2" d="M37,46.5V52c0,3.866-3.134,7-7,7l0,0c-3.866,0-7-3.134-7-7v-5.5"/><path fill="none" stroke="#333" stroke-linecap="round" stroke-linejoin="round" stroke-miterlimit="10" stroke-width="2" d="M48,19C48,8.382,38.807-0.088,27.947,1.114C19.471,2.052,12.719,9.058,12.056,17.56c-0.473,6.072,2.076,11.56,6.295,15.144 C20.082,34.172,21,36.387,21,38.657V39h18v-0.504c0-2.197,0.909-4.328,2.59-5.744C45.507,29.454,48,24.522,48,19z"/><line x1="23.9" x2="36.2" y1="55" y2="55" fill="none" stroke="#333" stroke-linecap="round" stroke-linejoin="round" stroke-miterlimit="10" stroke-width="2"/><line x1="23.1" x2="37" y1="51" y2="51" fill="none" stroke="#333" stroke-linecap="round" stroke-linejoin="round" stroke-miterlimit="10" stroke-width="2"/><path fill="none" stroke="#333" stroke-linecap="round" stroke-linejoin="round" stroke-miterlimit="10" stroke-width="2" d="M41.7,25c-1.45,3.038-3.604,4.089-4.866,5.975"/><path fill="none" stroke="#333" stroke-linecap="round" stroke-linejoin="round" stroke-miterlimit="10" stroke-width="2" d="M19.329,10.589c2.504-3.249,6.435-5.342,10.854-5.342"/><path fill="none" stroke="#333" stroke-linecap="round" stroke-linejoin="round" stroke-miterlimit="10" stroke-width="2" d="M16.607,17.117c0.154-1.156,0.452-2.266,0.876-3.312"/></g></svg>